<svg xmlns="http://www.w3.org/2000/svg" version="1" viewBox="0 0 288 288">
    <path fill="#009345" stroke="#009345" stroke-miterlimit="10" stroke-width="2" d="M59.4 259.9c23.3 17 52.1 27.1 83.1 27.1 77.9 0 141.1-63.2 141.1-141.1S220.5 4.8 142.5 4.8 1.4 68 1.4 145.9c0 38.3 15.3 73 40 98.5l-4.9 23.5 22.9-8z"/>
    <linearGradient id="a" x1="37.38" x2="207.85" y1="279.7" y2="62.71" gradientUnits="userSpaceOnUse">
        <stop offset="0" stop-color="#37B34A"/>
        <stop offset=".53" stop-color="#A4CC39"/>
    </linearGradient>
    <path fill="url(#a)" stroke="#009345" stroke-miterlimit="10" stroke-width="2" d="M62.3 256.1c23.3 17 52.1 27.1 83.1 27.1 77.9 0 141.1-63.2 141.1-141.1S223.4 1 145.5 1 4.4 64.2 4.4 142.1c0 38.3 15.3 73 40 98.5l-4.9 23.5 22.8-8z"/>
    <path fill="#D0D2D3" d="M143.1 192.3c-4.5 0-8.3-3.5-8.6-8l-.1-1c-2.1-18.7 4.2-39.1 21.5-59.9C171.4 105.1 180 91.6 180 76c0-17.7-11.1-29.4-32.9-29.8-9.1 0-18.9 2.2-26.9 5.9a8.6 8.6 0 0 1-11.7-4.8l-2.1-5.5a8.6 8.6 0 0 1 4-10.7c11.6-6 27.7-9.8 42.9-9.8 39.8 0 57.8 24.6 57.8 50.9 0 23.5-13.2 40.5-29.8 60.2-15.2 18-20.8 33.2-19.7 50.9.2 4.9-3.7 9-8.7 9h-9.8zm-15.7 48.5c0-12.8 8.7-21.8 20.8-21.8s20.4 9 20.4 21.8c0 12.1-8 21.5-20.8 21.5-12.1 0-20.4-9.4-20.4-21.5z"/>
    <path fill="#FFF" d="M137.7 192.7c-4.5 0-8.3-3.5-8.6-8l-.1-1c-2.1-18.7 4.2-39.1 21.5-59.9 15.6-18.3 24.2-31.9 24.2-47.4 0-17.7-11.1-29.4-32.9-29.8-9.1 0-18.9 2.2-26.9 5.9a8.6 8.6 0 0 1-11.7-4.8l-2.1-5.5a8.6 8.6 0 0 1 4-10.7c11.6-6 27.7-9.8 42.9-9.8 39.8 0 57.8 24.6 57.8 50.9 0 23.5-13.2 40.5-29.8 60.2-15.2 18-20.8 33.2-19.7 50.9.2 4.9-3.7 9-8.7 9h-9.9zm-15.6 48.4c0-12.8 8.7-21.8 20.8-21.8s20.4 9 20.4 21.8c0 12.1-8 21.5-20.8 21.5-12.1 0-20.4-9.4-20.4-21.5z"/>
</svg>
