<svg xmlns="http://www.w3.org/2000/svg" viewBox="0 0 100 30">
    <style>
        #bg, #su { fill: #fff }
    </style>
    <g id="bg">
        <path d="M7.39 12.18l3.77-.04c2 0 3.29-.78 3.29-2.81 0-1.51-1.29-2.59-3.03-2.59H7.39v5.44m4.33 10.91c1.85 0 3.22-1.11 3.22-2.77 0-1.48-1.03-2.88-2.7-2.99H7.39v5.77h4.33v-.01zM0 28.26V1.58h12.79c5.03.04 9.24 2.29 9.24 6.99 0 3.29-2.77 5.29-5.77 5.84v.07c3.55.48 6.43 2.74 6.43 6.54 0 7.76-9.91 7.25-10.16 7.25H0v-.01z"/>
        <path d="M42.51 18.28h-5.43v-5.17h12.83v14.27c-5.99.89-7.13 1.44-13.57 1.44-8.32-.26-13.38-5.54-13.38-13.9 0-8.35 5.06-13.64 13.38-13.9 6.47-.18 13.27.78 13.38 8.54h-7.39c-.37-2.59-2.4-3.36-4.84-3.36-4.99 0-6.76 4.4-6.76 8.72 0 5.25 2.63 8.72 7.95 8.72 1.37 0 2.74-.22 3.84-.44l-.01-4.92"/>
    </g>
    <g id="su">
        <path d="M59.77 28.82c-4.25 0-7.84-3.1-7.95-7.5h2.59c.07 4.1 3.11 5.29 6.69 5.29 2.99 0 6.43-1.74 6.43-5.14 0-2.66-1.92-3.92-4.18-4.66-4.32-1.44-10.9-2.81-10.9-8.58 0-4.66 4.29-7.21 8.5-7.21 3.51 0 8.1 1.22 8.69 6.36h-2.59c-.07-3.29-3.07-4.14-5.8-4.14-2.77 0-6.21 1.41-6.21 4.66 0 7.58 15.08 4.14 15.08 13.34 0 5.8-4.99 7.58-10.35 7.58"/>
        <path d="M75.31 1.58v17.26c.19 4.84 2.96 7.76 7.36 7.76s7.17-2.92 7.36-7.76V1.58h2.4v17.3c-.07 5.73-3.29 9.94-9.76 9.94s-9.68-4.21-9.76-9.94V1.58h2.4"/>
        <path d="M98.64 24.89c.42.43.62.93.62 1.51 0 .6-.21 1.1-.63 1.53-.42.42-.92.64-1.51.64s-1.1-.21-1.52-.63-.63-.93-.63-1.53c0-.58.21-1.08.62-1.51.42-.43.93-.65 1.53-.65.59-.01 1.1.21 1.52.64zm.32-.33c-.51-.51-1.12-.76-1.84-.76-.69 0-1.28.24-1.79.71-.54.5-.81 1.14-.81 1.9 0 .73.25 1.35.75 1.85s1.12.75 1.85.75c.71 0 1.31-.24 1.82-.73.52-.5.78-1.13.78-1.87 0-.73-.25-1.34-.76-1.85zm-1.52 1.64c-.1.07-.24.11-.41.11h-.29v-.84h.18c.19 0 .33.02.44.06.15.06.23.17.23.33s-.05.27-.15.34zm-.7.63h.16l.17.01c.12.01.2.02.26.05.1.04.17.11.21.21.02.06.04.18.05.35s.02.31.05.4h.72l-.02-.08c-.01-.03-.02-.06-.02-.08v-.34c0-.29-.09-.51-.26-.65-.09-.07-.23-.13-.41-.17.2-.02.36-.09.5-.19.14-.11.2-.28.2-.53 0-.32-.13-.55-.38-.69-.15-.08-.34-.13-.57-.15H96.01v2.88h.76v-1.02h-.03z"/>
    </g>
</svg>
