<!-- Generated by IcoMoon.io -->
<svg version="1.1" xmlns="http://www.w3.org/2000/svg" width="18" height="18" viewBox="0 0 18 18">
<title>search2</title>
<path fill="#fff" d="M10.988 3c-2.193 0-3.977 1.794-3.977 4 0 0.831 0.255 1.63 0.737 2.312l0.392 0.553 0.55 0.393c0.678 0.485 1.473 0.742 2.298 0.742 2.193 0 3.977-1.794 3.977-4s-1.784-4-3.977-4zM10.988 1c3.295 0 5.966 2.686 5.966 6s-2.671 6-5.966 6c-1.288 0-2.477-0.414-3.451-1.112l-4.791 4.819c-0.195 0.196-0.45 0.293-0.705 0.293s-0.51-0.098-0.704-0.293c-0.389-0.391-0.389-1.025 0-1.416l4.791-4.819c-0.694-0.98-1.105-2.177-1.105-3.471 0-3.314 2.671-6 5.965-6v0z"></path>
</svg>
